<mxfile host="app.diagrams.net" agent="Mozilla/5.0 (X11; Linux x86_64; rv:135.0) Gecko/20100101 Firefox/135.0" version="26.0.16">
  <diagram id="R2lEEEUBdFMjLlhIrx00" name="Page-1">
    <mxGraphModel dx="1175" dy="1712" grid="1" gridSize="10" guides="1" tooltips="1" connect="1" arrows="1" fold="1" page="1" pageScale="1" pageWidth="850" pageHeight="1100" math="0" shadow="0" extFonts="Permanent Marker^https://fonts.googleapis.com/css?family=Permanent+Marker">
      <root>
        <mxCell id="0" />
        <mxCell id="1" parent="0" />
        <mxCell id="PrgGAyFFZYAzt-EE56JW-4" style="edgeStyle=orthogonalEdgeStyle;rounded=0;orthogonalLoop=1;jettySize=auto;html=1;entryX=1;entryY=0.5;entryDx=0;entryDy=0;endArrow=none;startFill=0;" edge="1" parent="1" source="xZzz2faJ1F0tbF7FQ7QG-8" target="PrgGAyFFZYAzt-EE56JW-3">
          <mxGeometry relative="1" as="geometry" />
        </mxCell>
        <mxCell id="xZzz2faJ1F0tbF7FQ7QG-8" value="Dipendente" style="whiteSpace=wrap;html=1;align=center;" parent="1" vertex="1">
          <mxGeometry x="320" y="-360" width="100" height="40" as="geometry" />
        </mxCell>
        <mxCell id="xZzz2faJ1F0tbF7FQ7QG-9" value="Ruolo" style="whiteSpace=wrap;html=1;align=center;" parent="1" vertex="1">
          <mxGeometry x="577.5" y="-160" width="100" height="40" as="geometry" />
        </mxCell>
        <mxCell id="xZzz2faJ1F0tbF7FQ7QG-23" style="edgeStyle=orthogonalEdgeStyle;shape=connector;rounded=0;orthogonalLoop=1;jettySize=auto;html=1;entryX=1;entryY=0.5;entryDx=0;entryDy=0;strokeColor=default;align=center;verticalAlign=middle;fontFamily=Helvetica;fontSize=11;fontColor=default;labelBackgroundColor=default;endArrow=none;endFill=0;" parent="1" source="xZzz2faJ1F0tbF7FQ7QG-11" target="xZzz2faJ1F0tbF7FQ7QG-19" edge="1">
          <mxGeometry relative="1" as="geometry" />
        </mxCell>
        <mxCell id="xZzz2faJ1F0tbF7FQ7QG-11" value="Turno" style="whiteSpace=wrap;html=1;align=center;" parent="1" vertex="1">
          <mxGeometry x="580" y="-360" width="100" height="40" as="geometry" />
        </mxCell>
        <mxCell id="B31o79DsWO-S-SL9R5q--6" style="edgeStyle=orthogonalEdgeStyle;rounded=0;orthogonalLoop=1;jettySize=auto;html=1;exitX=1;exitY=0.5;exitDx=0;exitDy=0;entryX=0;entryY=0.5;entryDx=0;entryDy=0;endArrow=none;endFill=0;" parent="1" source="xZzz2faJ1F0tbF7FQ7QG-13" target="xZzz2faJ1F0tbF7FQ7QG-9" edge="1">
          <mxGeometry relative="1" as="geometry" />
        </mxCell>
        <mxCell id="B31o79DsWO-S-SL9R5q--7" style="edgeStyle=orthogonalEdgeStyle;shape=connector;rounded=0;orthogonalLoop=1;jettySize=auto;html=1;entryX=1;entryY=0.75;entryDx=0;entryDy=0;strokeColor=default;align=center;verticalAlign=middle;fontFamily=Helvetica;fontSize=11;fontColor=default;labelBackgroundColor=default;endArrow=none;endFill=0;exitX=0.5;exitY=0;exitDx=0;exitDy=0;" parent="1" source="xZzz2faJ1F0tbF7FQ7QG-13" target="xZzz2faJ1F0tbF7FQ7QG-8" edge="1">
          <mxGeometry relative="1" as="geometry">
            <Array as="points">
              <mxPoint x="450" y="-170" />
              <mxPoint x="450" y="-330" />
            </Array>
          </mxGeometry>
        </mxCell>
        <mxCell id="xZzz2faJ1F0tbF7FQ7QG-13" value="Svolge" style="shape=rhombus;perimeter=rhombusPerimeter;whiteSpace=wrap;html=1;align=center;" parent="1" vertex="1">
          <mxGeometry x="410" y="-170" width="80" height="60" as="geometry" />
        </mxCell>
        <mxCell id="xZzz2faJ1F0tbF7FQ7QG-24" style="edgeStyle=orthogonalEdgeStyle;shape=connector;rounded=0;orthogonalLoop=1;jettySize=auto;html=1;entryX=1;entryY=0.5;entryDx=0;entryDy=0;strokeColor=default;align=center;verticalAlign=middle;fontFamily=Helvetica;fontSize=11;fontColor=default;labelBackgroundColor=default;endArrow=none;endFill=0;" parent="1" source="xZzz2faJ1F0tbF7FQ7QG-19" target="xZzz2faJ1F0tbF7FQ7QG-8" edge="1">
          <mxGeometry relative="1" as="geometry" />
        </mxCell>
        <mxCell id="xZzz2faJ1F0tbF7FQ7QG-19" value="&lt;font style=&quot;font-size: 11px;&quot;&gt;Assegnazione&lt;/font&gt;" style="shape=rhombus;perimeter=rhombusPerimeter;whiteSpace=wrap;html=1;align=center;" parent="1" vertex="1">
          <mxGeometry x="460" y="-370" width="80" height="60" as="geometry" />
        </mxCell>
        <mxCell id="xZzz2faJ1F0tbF7FQ7QG-31" style="edgeStyle=none;shape=connector;rounded=0;orthogonalLoop=1;jettySize=auto;html=1;strokeColor=default;align=center;verticalAlign=middle;fontFamily=Helvetica;fontSize=11;fontColor=default;labelBackgroundColor=default;endArrow=none;" parent="1" edge="1">
          <mxGeometry relative="1" as="geometry">
            <mxPoint x="584.78" y="-360" as="sourcePoint" />
            <mxPoint x="584.78" y="-400" as="targetPoint" />
          </mxGeometry>
        </mxCell>
        <mxCell id="xZzz2faJ1F0tbF7FQ7QG-33" style="edgeStyle=none;shape=connector;rounded=0;orthogonalLoop=1;jettySize=auto;html=1;strokeColor=default;align=center;verticalAlign=middle;fontFamily=Helvetica;fontSize=11;fontColor=default;labelBackgroundColor=default;endArrow=none;" parent="1" edge="1">
          <mxGeometry relative="1" as="geometry">
            <mxPoint x="582.28" y="-160" as="sourcePoint" />
            <mxPoint x="582.28" y="-200" as="targetPoint" />
          </mxGeometry>
        </mxCell>
        <mxCell id="xZzz2faJ1F0tbF7FQ7QG-34" value="" style="ellipse;whiteSpace=wrap;html=1;aspect=fixed;fontFamily=Helvetica;fontSize=11;fontColor=default;labelBackgroundColor=default;fillColor=#0A0A0A;" parent="1" vertex="1">
          <mxGeometry x="577.5" y="-210" width="10" height="10" as="geometry" />
        </mxCell>
        <mxCell id="xZzz2faJ1F0tbF7FQ7QG-47" value="TipoRuolo" style="text;html=1;align=center;verticalAlign=middle;resizable=0;points=[];autosize=1;strokeColor=none;fillColor=none;fontFamily=Helvetica;fontSize=11;fontColor=default;labelBackgroundColor=default;" parent="1" vertex="1">
          <mxGeometry x="542.5" y="-240" width="80" height="30" as="geometry" />
        </mxCell>
        <mxCell id="xZzz2faJ1F0tbF7FQ7QG-51" style="edgeStyle=none;shape=connector;rounded=0;orthogonalLoop=1;jettySize=auto;html=1;strokeColor=default;align=center;verticalAlign=middle;fontFamily=Helvetica;fontSize=11;fontColor=default;labelBackgroundColor=default;endArrow=none;" parent="1" edge="1">
          <mxGeometry relative="1" as="geometry">
            <mxPoint x="672.39" y="-160" as="sourcePoint" />
            <mxPoint x="672.39" y="-200" as="targetPoint" />
          </mxGeometry>
        </mxCell>
        <mxCell id="xZzz2faJ1F0tbF7FQ7QG-52" value="" style="ellipse;whiteSpace=wrap;html=1;aspect=fixed;fontFamily=Helvetica;fontSize=11;fontColor=default;labelBackgroundColor=default;fillColor=none;" parent="1" vertex="1">
          <mxGeometry x="667.5" y="-210" width="10" height="10" as="geometry" />
        </mxCell>
        <mxCell id="xZzz2faJ1F0tbF7FQ7QG-53" value="LivelloStipendio" style="text;html=1;align=center;verticalAlign=middle;resizable=0;points=[];autosize=1;strokeColor=none;fillColor=none;fontFamily=Helvetica;fontSize=11;fontColor=default;labelBackgroundColor=default;" parent="1" vertex="1">
          <mxGeometry x="622.5" y="-240" width="100" height="30" as="geometry" />
        </mxCell>
        <mxCell id="xZzz2faJ1F0tbF7FQ7QG-54" style="edgeStyle=none;shape=connector;rounded=0;orthogonalLoop=1;jettySize=auto;html=1;strokeColor=default;align=center;verticalAlign=middle;fontFamily=Helvetica;fontSize=11;fontColor=default;labelBackgroundColor=default;endArrow=none;" parent="1" edge="1">
          <mxGeometry relative="1" as="geometry">
            <mxPoint x="629.89" y="-360" as="sourcePoint" />
            <mxPoint x="629.89" y="-400" as="targetPoint" />
          </mxGeometry>
        </mxCell>
        <mxCell id="xZzz2faJ1F0tbF7FQ7QG-55" value="" style="ellipse;whiteSpace=wrap;html=1;aspect=fixed;fontFamily=Helvetica;fontSize=11;fontColor=default;labelBackgroundColor=default;fillColor=none;" parent="1" vertex="1">
          <mxGeometry x="625" y="-410" width="10" height="10" as="geometry" />
        </mxCell>
        <mxCell id="xZzz2faJ1F0tbF7FQ7QG-56" value="OraInizio" style="text;html=1;align=center;verticalAlign=middle;resizable=0;points=[];autosize=1;strokeColor=none;fillColor=none;fontFamily=Helvetica;fontSize=11;fontColor=default;labelBackgroundColor=default;" parent="1" vertex="1">
          <mxGeometry x="592.5" y="-440" width="70" height="30" as="geometry" />
        </mxCell>
        <mxCell id="xZzz2faJ1F0tbF7FQ7QG-57" style="edgeStyle=none;shape=connector;rounded=0;orthogonalLoop=1;jettySize=auto;html=1;strokeColor=default;align=center;verticalAlign=middle;fontFamily=Helvetica;fontSize=11;fontColor=default;labelBackgroundColor=default;endArrow=none;" parent="1" edge="1">
          <mxGeometry relative="1" as="geometry">
            <mxPoint x="674.89" y="-360" as="sourcePoint" />
            <mxPoint x="674.89" y="-400" as="targetPoint" />
          </mxGeometry>
        </mxCell>
        <mxCell id="xZzz2faJ1F0tbF7FQ7QG-58" value="" style="ellipse;whiteSpace=wrap;html=1;aspect=fixed;fontFamily=Helvetica;fontSize=11;fontColor=default;labelBackgroundColor=default;fillColor=none;" parent="1" vertex="1">
          <mxGeometry x="670" y="-410" width="10" height="10" as="geometry" />
        </mxCell>
        <mxCell id="xZzz2faJ1F0tbF7FQ7QG-59" value="OraFine" style="text;html=1;align=center;verticalAlign=middle;resizable=0;points=[];autosize=1;strokeColor=none;fillColor=none;fontFamily=Helvetica;fontSize=11;fontColor=default;labelBackgroundColor=default;" parent="1" vertex="1">
          <mxGeometry x="645" y="-440" width="60" height="30" as="geometry" />
        </mxCell>
        <mxCell id="xZzz2faJ1F0tbF7FQ7QG-63" style="edgeStyle=none;shape=connector;rounded=0;orthogonalLoop=1;jettySize=auto;html=1;strokeColor=default;align=center;verticalAlign=middle;fontFamily=Helvetica;fontSize=11;fontColor=default;labelBackgroundColor=default;endArrow=none;" parent="1" edge="1">
          <mxGeometry relative="1" as="geometry">
            <mxPoint x="334.64" y="-280" as="sourcePoint" />
            <mxPoint x="334.64" y="-320" as="targetPoint" />
          </mxGeometry>
        </mxCell>
        <mxCell id="xZzz2faJ1F0tbF7FQ7QG-65" value="Data" style="text;html=1;align=center;verticalAlign=middle;resizable=0;points=[];autosize=1;strokeColor=none;fillColor=none;fontFamily=Helvetica;fontSize=11;fontColor=default;labelBackgroundColor=default;" parent="1" vertex="1">
          <mxGeometry x="560" y="-440" width="50" height="30" as="geometry" />
        </mxCell>
        <mxCell id="xZzz2faJ1F0tbF7FQ7QG-80" style="edgeStyle=none;shape=connector;rounded=0;orthogonalLoop=1;jettySize=auto;html=1;strokeColor=default;align=center;verticalAlign=middle;fontFamily=Helvetica;fontSize=11;fontColor=default;labelBackgroundColor=default;endArrow=none;" parent="1" edge="1">
          <mxGeometry relative="1" as="geometry">
            <mxPoint x="334.78" y="-360" as="sourcePoint" />
            <mxPoint x="334.78" y="-400" as="targetPoint" />
          </mxGeometry>
        </mxCell>
        <mxCell id="xZzz2faJ1F0tbF7FQ7QG-81" value="" style="ellipse;whiteSpace=wrap;html=1;aspect=fixed;fontFamily=Helvetica;fontSize=11;fontColor=default;labelBackgroundColor=default;fillColor=#0A0A0A;" parent="1" vertex="1">
          <mxGeometry x="330" y="-410" width="10" height="10" as="geometry" />
        </mxCell>
        <mxCell id="xZzz2faJ1F0tbF7FQ7QG-83" value="Matricola" style="text;html=1;align=center;verticalAlign=middle;resizable=0;points=[];autosize=1;strokeColor=none;fillColor=none;fontFamily=Helvetica;fontSize=11;fontColor=default;labelBackgroundColor=default;rotation=90;" parent="1" vertex="1">
          <mxGeometry x="300" y="-460" width="70" height="30" as="geometry" />
        </mxCell>
        <mxCell id="xZzz2faJ1F0tbF7FQ7QG-84" style="edgeStyle=none;shape=connector;rounded=0;orthogonalLoop=1;jettySize=auto;html=1;strokeColor=default;align=center;verticalAlign=middle;fontFamily=Helvetica;fontSize=11;fontColor=default;labelBackgroundColor=default;endArrow=none;" parent="1" edge="1">
          <mxGeometry relative="1" as="geometry">
            <mxPoint x="360" y="-360" as="sourcePoint" />
            <mxPoint x="360" y="-400" as="targetPoint" />
          </mxGeometry>
        </mxCell>
        <mxCell id="xZzz2faJ1F0tbF7FQ7QG-85" value="" style="ellipse;whiteSpace=wrap;html=1;aspect=fixed;fontFamily=Helvetica;fontSize=11;fontColor=default;labelBackgroundColor=default;fillColor=none;" parent="1" vertex="1">
          <mxGeometry x="355" y="-410" width="10" height="10" as="geometry" />
        </mxCell>
        <mxCell id="xZzz2faJ1F0tbF7FQ7QG-86" value="Nome" style="text;html=1;align=center;verticalAlign=middle;resizable=0;points=[];autosize=1;strokeColor=none;fillColor=none;fontFamily=Helvetica;fontSize=11;fontColor=default;labelBackgroundColor=default;rotation=90;" parent="1" vertex="1">
          <mxGeometry x="335" y="-450" width="50" height="30" as="geometry" />
        </mxCell>
        <mxCell id="xZzz2faJ1F0tbF7FQ7QG-87" value="" style="ellipse;whiteSpace=wrap;html=1;aspect=fixed;fontFamily=Helvetica;fontSize=11;fontColor=default;labelBackgroundColor=default;fillColor=none;" parent="1" vertex="1">
          <mxGeometry x="380" y="-410" width="10" height="10" as="geometry" />
        </mxCell>
        <mxCell id="xZzz2faJ1F0tbF7FQ7QG-88" style="edgeStyle=none;shape=connector;rounded=0;orthogonalLoop=1;jettySize=auto;html=1;strokeColor=default;align=center;verticalAlign=middle;fontFamily=Helvetica;fontSize=11;fontColor=default;labelBackgroundColor=default;endArrow=none;" parent="1" edge="1">
          <mxGeometry relative="1" as="geometry">
            <mxPoint x="385" y="-360" as="sourcePoint" />
            <mxPoint x="385" y="-400" as="targetPoint" />
            <Array as="points" />
          </mxGeometry>
        </mxCell>
        <mxCell id="xZzz2faJ1F0tbF7FQ7QG-89" value="Cognome" style="text;html=1;align=center;verticalAlign=middle;resizable=0;points=[];autosize=1;strokeColor=none;fillColor=none;fontFamily=Helvetica;fontSize=11;fontColor=default;labelBackgroundColor=default;rotation=90;" parent="1" vertex="1">
          <mxGeometry x="350" y="-460" width="70" height="30" as="geometry" />
        </mxCell>
        <mxCell id="xZzz2faJ1F0tbF7FQ7QG-90" value="" style="ellipse;whiteSpace=wrap;html=1;aspect=fixed;fontFamily=Helvetica;fontSize=11;fontColor=default;labelBackgroundColor=default;fillColor=none;" parent="1" vertex="1">
          <mxGeometry x="410" y="-410" width="10" height="10" as="geometry" />
        </mxCell>
        <mxCell id="xZzz2faJ1F0tbF7FQ7QG-91" style="edgeStyle=none;shape=connector;rounded=0;orthogonalLoop=1;jettySize=auto;html=1;strokeColor=default;align=center;verticalAlign=middle;fontFamily=Helvetica;fontSize=11;fontColor=default;labelBackgroundColor=default;endArrow=none;" parent="1" edge="1">
          <mxGeometry relative="1" as="geometry">
            <mxPoint x="415" y="-360" as="sourcePoint" />
            <mxPoint x="415" y="-400" as="targetPoint" />
            <Array as="points" />
          </mxGeometry>
        </mxCell>
        <mxCell id="xZzz2faJ1F0tbF7FQ7QG-92" value="DataAssunzione" style="text;html=1;align=center;verticalAlign=middle;resizable=0;points=[];autosize=1;strokeColor=none;fillColor=none;fontFamily=Helvetica;fontSize=11;fontColor=default;labelBackgroundColor=default;rotation=90;" parent="1" vertex="1">
          <mxGeometry x="365" y="-470" width="100" height="30" as="geometry" />
        </mxCell>
        <mxCell id="xZzz2faJ1F0tbF7FQ7QG-95" value="" style="ellipse;whiteSpace=wrap;html=1;aspect=fixed;fontFamily=Helvetica;fontSize=11;fontColor=default;labelBackgroundColor=default;fillColor=none;" parent="1" vertex="1">
          <mxGeometry x="330" y="-280" width="10" height="10" as="geometry" />
        </mxCell>
        <mxCell id="xZzz2faJ1F0tbF7FQ7QG-96" style="edgeStyle=none;shape=connector;rounded=0;orthogonalLoop=1;jettySize=auto;html=1;strokeColor=default;align=center;verticalAlign=middle;fontFamily=Helvetica;fontSize=11;fontColor=default;labelBackgroundColor=default;endArrow=none;" parent="1" edge="1">
          <mxGeometry relative="1" as="geometry">
            <mxPoint x="359.64" y="-280" as="sourcePoint" />
            <mxPoint x="359.64" y="-320" as="targetPoint" />
          </mxGeometry>
        </mxCell>
        <mxCell id="xZzz2faJ1F0tbF7FQ7QG-97" value="" style="ellipse;whiteSpace=wrap;html=1;aspect=fixed;fontFamily=Helvetica;fontSize=11;fontColor=default;labelBackgroundColor=default;fillColor=none;" parent="1" vertex="1">
          <mxGeometry x="355" y="-280" width="10" height="10" as="geometry" />
        </mxCell>
        <mxCell id="xZzz2faJ1F0tbF7FQ7QG-98" style="edgeStyle=none;shape=connector;rounded=0;orthogonalLoop=1;jettySize=auto;html=1;strokeColor=default;align=center;verticalAlign=middle;fontFamily=Helvetica;fontSize=11;fontColor=default;labelBackgroundColor=default;endArrow=none;" parent="1" edge="1">
          <mxGeometry relative="1" as="geometry">
            <mxPoint x="384.64" y="-280" as="sourcePoint" />
            <mxPoint x="384.64" y="-320" as="targetPoint" />
          </mxGeometry>
        </mxCell>
        <mxCell id="xZzz2faJ1F0tbF7FQ7QG-99" value="" style="ellipse;whiteSpace=wrap;html=1;aspect=fixed;fontFamily=Helvetica;fontSize=11;fontColor=default;labelBackgroundColor=default;fillColor=none;" parent="1" vertex="1">
          <mxGeometry x="380" y="-280" width="10" height="10" as="geometry" />
        </mxCell>
        <mxCell id="xZzz2faJ1F0tbF7FQ7QG-102" value="DataNascita" style="text;html=1;align=center;verticalAlign=middle;resizable=0;points=[];autosize=1;strokeColor=none;fillColor=none;fontFamily=Helvetica;fontSize=11;fontColor=default;labelBackgroundColor=default;rotation=-90;" parent="1" vertex="1">
          <mxGeometry x="295" y="-250" width="80" height="30" as="geometry" />
        </mxCell>
        <mxCell id="xZzz2faJ1F0tbF7FQ7QG-103" value="Email" style="text;html=1;align=center;verticalAlign=middle;resizable=0;points=[];autosize=1;strokeColor=none;fillColor=none;fontFamily=Helvetica;fontSize=11;fontColor=default;labelBackgroundColor=default;rotation=-90;" parent="1" vertex="1">
          <mxGeometry x="335" y="-262" width="50" height="30" as="geometry" />
        </mxCell>
        <mxCell id="xZzz2faJ1F0tbF7FQ7QG-104" value="Password" style="text;html=1;align=center;verticalAlign=middle;resizable=0;points=[];autosize=1;strokeColor=none;fillColor=none;fontFamily=Helvetica;fontSize=11;fontColor=default;labelBackgroundColor=default;rotation=-90;" parent="1" vertex="1">
          <mxGeometry x="350" y="-250" width="70" height="30" as="geometry" />
        </mxCell>
        <mxCell id="xZzz2faJ1F0tbF7FQ7QG-105" style="edgeStyle=none;shape=connector;rounded=0;orthogonalLoop=1;jettySize=auto;html=1;strokeColor=default;align=center;verticalAlign=middle;fontFamily=Helvetica;fontSize=11;fontColor=default;labelBackgroundColor=default;endArrow=none;" parent="1" edge="1">
          <mxGeometry relative="1" as="geometry">
            <mxPoint x="414.64" y="-280" as="sourcePoint" />
            <mxPoint x="414.64" y="-320" as="targetPoint" />
          </mxGeometry>
        </mxCell>
        <mxCell id="xZzz2faJ1F0tbF7FQ7QG-106" value="" style="ellipse;whiteSpace=wrap;html=1;aspect=fixed;fontFamily=Helvetica;fontSize=11;fontColor=default;labelBackgroundColor=default;fillColor=none;" parent="1" vertex="1">
          <mxGeometry x="410" y="-280" width="10" height="10" as="geometry" />
        </mxCell>
        <mxCell id="xZzz2faJ1F0tbF7FQ7QG-107" value="Stipendio" style="text;html=1;align=center;verticalAlign=middle;resizable=0;points=[];autosize=1;strokeColor=none;fillColor=none;fontFamily=Helvetica;fontSize=11;fontColor=default;labelBackgroundColor=default;rotation=-90;" parent="1" vertex="1">
          <mxGeometry x="380" y="-250" width="70" height="30" as="geometry" />
        </mxCell>
        <mxCell id="B31o79DsWO-S-SL9R5q--3" style="edgeStyle=none;shape=connector;rounded=0;orthogonalLoop=1;jettySize=auto;html=1;strokeColor=default;align=center;verticalAlign=middle;fontFamily=Helvetica;fontSize=11;fontColor=default;labelBackgroundColor=default;endArrow=none;exitX=1;exitY=0;exitDx=0;exitDy=0;" parent="1" source="B31o79DsWO-S-SL9R5q--4" edge="1">
          <mxGeometry relative="1" as="geometry">
            <mxPoint x="290" y="-290" as="sourcePoint" />
            <mxPoint x="320" y="-320" as="targetPoint" />
          </mxGeometry>
        </mxCell>
        <mxCell id="B31o79DsWO-S-SL9R5q--4" value="" style="ellipse;whiteSpace=wrap;html=1;aspect=fixed;fontFamily=Helvetica;fontSize=11;fontColor=default;labelBackgroundColor=default;fillColor=none;" parent="1" vertex="1">
          <mxGeometry x="280" y="-290" width="10" height="10" as="geometry" />
        </mxCell>
        <mxCell id="B31o79DsWO-S-SL9R5q--5" value="Cellulare" style="text;html=1;align=center;verticalAlign=middle;resizable=0;points=[];autosize=1;strokeColor=none;fillColor=none;rotation=-50;" parent="1" vertex="1">
          <mxGeometry x="225" y="-270" width="70" height="30" as="geometry" />
        </mxCell>
        <mxCell id="B31o79DsWO-S-SL9R5q--10" value="(1:N)" style="text;html=1;align=center;verticalAlign=middle;resizable=0;points=[];autosize=1;strokeColor=none;fillColor=none;fontFamily=Helvetica;fontSize=11;fontColor=default;labelBackgroundColor=default;fontStyle=1" parent="1" vertex="1">
          <mxGeometry x="415" y="-370" width="50" height="30" as="geometry" />
        </mxCell>
        <mxCell id="B31o79DsWO-S-SL9R5q--11" value="(1:N)" style="text;html=1;align=center;verticalAlign=middle;resizable=0;points=[];autosize=1;strokeColor=none;fillColor=none;fontFamily=Helvetica;fontSize=11;fontColor=default;labelBackgroundColor=default;fontStyle=1" parent="1" vertex="1">
          <mxGeometry x="530" y="-370" width="50" height="30" as="geometry" />
        </mxCell>
        <mxCell id="B31o79DsWO-S-SL9R5q--12" value="(1:1)" style="text;html=1;align=center;verticalAlign=middle;resizable=0;points=[];autosize=1;strokeColor=none;fillColor=none;fontFamily=Helvetica;fontSize=11;fontColor=default;labelBackgroundColor=default;fontStyle=1" parent="1" vertex="1">
          <mxGeometry x="450" y="-200" width="50" height="30" as="geometry" />
        </mxCell>
        <mxCell id="B31o79DsWO-S-SL9R5q--13" value="(1:N)" style="text;html=1;align=center;verticalAlign=middle;resizable=0;points=[];autosize=1;strokeColor=none;fillColor=none;fontFamily=Helvetica;fontSize=11;fontColor=default;labelBackgroundColor=default;fontStyle=1" parent="1" vertex="1">
          <mxGeometry x="490" y="-170" width="50" height="30" as="geometry" />
        </mxCell>
        <mxCell id="B31o79DsWO-S-SL9R5q--14" value="" style="ellipse;whiteSpace=wrap;html=1;aspect=fixed;fontFamily=Helvetica;fontSize=11;fontColor=default;labelBackgroundColor=default;fillColor=none;" parent="1" vertex="1">
          <mxGeometry x="470" y="-400" width="10" height="10" as="geometry" />
        </mxCell>
        <mxCell id="B31o79DsWO-S-SL9R5q--15" style="edgeStyle=none;shape=connector;rounded=0;orthogonalLoop=1;jettySize=auto;html=1;strokeColor=default;align=center;verticalAlign=middle;fontFamily=Helvetica;fontSize=11;fontColor=default;labelBackgroundColor=default;endArrow=none;exitX=0.193;exitY=0.308;exitDx=0;exitDy=0;exitPerimeter=0;" parent="1" source="xZzz2faJ1F0tbF7FQ7QG-19" edge="1">
          <mxGeometry relative="1" as="geometry">
            <mxPoint x="474.95" y="-360" as="sourcePoint" />
            <mxPoint x="475" y="-390" as="targetPoint" />
            <Array as="points" />
          </mxGeometry>
        </mxCell>
        <mxCell id="B31o79DsWO-S-SL9R5q--16" value="" style="ellipse;whiteSpace=wrap;html=1;aspect=fixed;fontFamily=Helvetica;fontSize=11;fontColor=default;labelBackgroundColor=default;fillColor=none;" parent="1" vertex="1">
          <mxGeometry x="520" y="-290" width="10" height="10" as="geometry" />
        </mxCell>
        <mxCell id="B31o79DsWO-S-SL9R5q--17" style="edgeStyle=none;shape=connector;rounded=0;orthogonalLoop=1;jettySize=auto;html=1;strokeColor=default;align=center;verticalAlign=middle;fontFamily=Helvetica;fontSize=11;fontColor=default;labelBackgroundColor=default;endArrow=none;exitX=0.193;exitY=0.308;exitDx=0;exitDy=0;exitPerimeter=0;entryX=0.811;entryY=0.686;entryDx=0;entryDy=0;entryPerimeter=0;" parent="1" target="xZzz2faJ1F0tbF7FQ7QG-19" edge="1">
          <mxGeometry relative="1" as="geometry">
            <mxPoint x="524.93" y="-290" as="sourcePoint" />
            <mxPoint x="524.93" y="-328" as="targetPoint" />
            <Array as="points" />
          </mxGeometry>
        </mxCell>
        <mxCell id="B31o79DsWO-S-SL9R5q--18" value="Note" style="text;html=1;align=center;verticalAlign=middle;resizable=0;points=[];autosize=1;strokeColor=none;fillColor=none;fontFamily=Helvetica;fontSize=11;fontColor=default;labelBackgroundColor=default;" parent="1" vertex="1">
          <mxGeometry x="448" y="-423" width="50" height="30" as="geometry" />
        </mxCell>
        <mxCell id="B31o79DsWO-S-SL9R5q--19" value="DataAssegnazione" style="text;html=1;align=center;verticalAlign=middle;resizable=0;points=[];autosize=1;strokeColor=none;fillColor=none;fontFamily=Helvetica;fontSize=11;fontColor=default;labelBackgroundColor=default;" parent="1" vertex="1">
          <mxGeometry x="470" y="-280" width="120" height="30" as="geometry" />
        </mxCell>
        <mxCell id="KInnoQLlEVL8KKoxuPV4-1" value="" style="ellipse;whiteSpace=wrap;html=1;aspect=fixed;fontFamily=Helvetica;fontSize=11;fontColor=default;labelBackgroundColor=default;fillColor=none;" parent="1" vertex="1">
          <mxGeometry x="580" y="-410" width="10" height="10" as="geometry" />
        </mxCell>
        <mxCell id="KInnoQLlEVL8KKoxuPV4-2" style="edgeStyle=orthogonalEdgeStyle;rounded=0;orthogonalLoop=1;jettySize=auto;html=1;exitX=1;exitY=0.5;exitDx=0;exitDy=0;endArrow=none;endFill=0;" parent="1" edge="1">
          <mxGeometry relative="1" as="geometry">
            <mxPoint x="572.5" y="-385.17" as="sourcePoint" />
            <mxPoint x="695" y="-385.17" as="targetPoint" />
          </mxGeometry>
        </mxCell>
        <mxCell id="KInnoQLlEVL8KKoxuPV4-3" value="" style="ellipse;whiteSpace=wrap;html=1;aspect=fixed;fontFamily=Helvetica;fontSize=11;fontColor=default;labelBackgroundColor=default;fillColor=#0A0A0A;" parent="1" vertex="1">
          <mxGeometry x="695" y="-390" width="10" height="10" as="geometry" />
        </mxCell>
        <mxCell id="PrgGAyFFZYAzt-EE56JW-2" value="Zona" style="whiteSpace=wrap;html=1;align=center;" vertex="1" parent="1">
          <mxGeometry x="40" y="-360" width="100" height="40" as="geometry" />
        </mxCell>
        <mxCell id="PrgGAyFFZYAzt-EE56JW-5" style="edgeStyle=orthogonalEdgeStyle;shape=connector;rounded=0;orthogonalLoop=1;jettySize=auto;html=1;entryX=1;entryY=0.5;entryDx=0;entryDy=0;strokeColor=default;align=center;verticalAlign=middle;fontFamily=Helvetica;fontSize=11;fontColor=default;labelBackgroundColor=default;startFill=0;endArrow=none;" edge="1" parent="1" source="PrgGAyFFZYAzt-EE56JW-3" target="PrgGAyFFZYAzt-EE56JW-2">
          <mxGeometry relative="1" as="geometry" />
        </mxCell>
        <mxCell id="PrgGAyFFZYAzt-EE56JW-3" value="Responsabile" style="shape=rhombus;perimeter=rhombusPerimeter;whiteSpace=wrap;html=1;align=center;" vertex="1" parent="1">
          <mxGeometry x="190" y="-370" width="80" height="60" as="geometry" />
        </mxCell>
        <mxCell id="PrgGAyFFZYAzt-EE56JW-6" value="(1:1)" style="text;html=1;align=center;verticalAlign=middle;resizable=0;points=[];autosize=1;strokeColor=none;fillColor=none;fontFamily=Helvetica;fontSize=11;fontColor=default;labelBackgroundColor=default;fontStyle=1" vertex="1" parent="1">
          <mxGeometry x="140" y="-370" width="50" height="30" as="geometry" />
        </mxCell>
        <mxCell id="PrgGAyFFZYAzt-EE56JW-7" value="(1:1)" style="text;html=1;align=center;verticalAlign=middle;resizable=0;points=[];autosize=1;strokeColor=none;fillColor=none;fontFamily=Helvetica;fontSize=11;fontColor=default;labelBackgroundColor=default;fontStyle=1" vertex="1" parent="1">
          <mxGeometry x="260" y="-370" width="50" height="30" as="geometry" />
        </mxCell>
        <mxCell id="PrgGAyFFZYAzt-EE56JW-8" style="edgeStyle=none;shape=connector;rounded=0;orthogonalLoop=1;jettySize=auto;html=1;strokeColor=default;align=center;verticalAlign=middle;fontFamily=Helvetica;fontSize=11;fontColor=default;labelBackgroundColor=default;endArrow=none;" edge="1" parent="1">
          <mxGeometry relative="1" as="geometry">
            <mxPoint x="44.77999999999997" y="-360" as="sourcePoint" />
            <mxPoint x="44.77999999999997" y="-400" as="targetPoint" />
          </mxGeometry>
        </mxCell>
        <mxCell id="PrgGAyFFZYAzt-EE56JW-9" value="" style="ellipse;whiteSpace=wrap;html=1;aspect=fixed;fontFamily=Helvetica;fontSize=11;fontColor=default;labelBackgroundColor=default;fillColor=#0A0A0A;" vertex="1" parent="1">
          <mxGeometry x="40" y="-410" width="10" height="10" as="geometry" />
        </mxCell>
        <mxCell id="PrgGAyFFZYAzt-EE56JW-10" value="NomeZona" style="text;html=1;align=center;verticalAlign=middle;resizable=0;points=[];autosize=1;strokeColor=none;fillColor=none;fontFamily=Helvetica;fontSize=11;fontColor=default;labelBackgroundColor=default;" vertex="1" parent="1">
          <mxGeometry x="1" y="-452" width="80" height="30" as="geometry" />
        </mxCell>
      </root>
    </mxGraphModel>
  </diagram>
</mxfile>
